<svg width="18" height="18" viewBox="0 0 18 18" fill="none" xmlns="http://www.w3.org/2000/svg">
<path d="M9 16.5259H5C2.6 16.5259 1 15.1559 1 11.9594V5.56643C1 2.36993 2.6 1 5 1H13C15.4 1 17 2.36993 17 5.56643V8.30629" stroke="white" stroke-width="0.7" stroke-miterlimit="10" stroke-linecap="round" stroke-linejoin="round"/>
<path d="M13 6.02319L10.496 8.30641C9.672 9.0553 8.32 9.0553 7.496 8.30641L5 6.02319" stroke="white" stroke-width="0.7" stroke-miterlimit="10" stroke-linecap="round" stroke-linejoin="round"/>
<path d="M14.768 11.2929L11.9361 14.5259C11.8241 14.6538 11.7201 14.8912 11.6961 15.0647L11.544 16.2977C11.488 16.7452 11.7601 17.0557 12.1521 16.9918L13.2321 16.8183C13.3841 16.7909 13.6001 16.6721 13.7041 16.5442L16.5361 13.3112C17.0241 12.7541 17.2561 12.1057 16.5361 11.2837C15.8241 10.4709 15.256 10.7357 14.768 11.2929Z" stroke="white" stroke-width="0.7" stroke-miterlimit="10" stroke-linecap="round" stroke-linejoin="round"/>
<path d="M14.3601 11.7585C14.6001 12.7449 15.2721 13.5121 16.1361 13.786" stroke="white" stroke-width="0.7" stroke-miterlimit="10" stroke-linecap="round" stroke-linejoin="round"/>
</svg>
