<svg width="109" height="30" viewBox="0 0 109 30" fill="none" xmlns="http://www.w3.org/2000/svg">
<path d="M0.016 5.06H7.576V23.456H17.362V29H0.016V5.06ZM23.4346 7.286C22.4826 7.286 21.6566 6.964 20.9566 6.32C20.2846 5.676 19.9486 4.906 19.9486 4.01C19.9486 3.114 20.2846 2.344 20.9566 1.7C21.6566 1.056 22.4826 0.733998 23.4346 0.733998C24.3866 0.733998 25.1986 1.056 25.8706 1.7C26.5426 2.344 26.8786 3.114 26.8786 4.01C26.8786 4.906 26.5426 5.676 25.8706 6.32C25.1986 6.964 24.3866 7.286 23.4346 7.286ZM19.8226 9.68H27.0046V29H19.8226V9.68ZM42.9978 9.68H50.5158L44.6358 29H34.6818L28.8017 9.68H36.3198L39.4698 24.506H39.8898L42.9978 9.68ZM63.899 23.96C64.599 23.96 65.901 23.89 67.805 23.75C68.057 23.75 68.519 23.722 69.191 23.666L69.821 27.992C67.665 29 64.865 29.504 61.421 29.504C58.201 29.504 55.723 28.692 53.987 27.068C52.279 25.444 51.425 22.994 51.425 19.718C51.425 18.038 51.635 16.414 52.055 14.846C52.503 13.278 53.007 12.186 53.567 11.57C54.155 10.954 55.247 10.422 56.843 9.974C58.439 9.526 60.021 9.302 61.589 9.302C64.109 9.302 65.999 9.75 67.259 10.646C68.519 11.542 69.345 12.788 69.737 14.384C70.129 15.952 70.325 18.066 70.325 20.726C68.421 20.838 66.559 20.894 64.739 20.894H58.775C58.775 21.79 58.957 22.462 59.321 22.91C59.713 23.358 60.259 23.652 60.959 23.792C61.659 23.904 62.639 23.96 63.899 23.96ZM59.195 14.3C59.027 14.384 58.901 14.748 58.817 15.392C58.733 16.036 58.677 16.764 58.649 17.576H60.833C62.149 17.576 63.101 17.562 63.689 17.534C63.689 16.19 63.493 15.238 63.101 14.678C62.737 14.118 62.093 13.838 61.169 13.838C60.413 13.838 59.755 13.992 59.195 14.3ZM91.5429 10.898C91.7949 11.206 91.9769 11.976 92.0889 13.208C92.2289 14.44 92.2989 16.316 92.2989 18.836V29H85.1169V18.92V17.198C85.1169 16.302 85.0469 15.742 84.9069 15.518C84.6829 15.238 84.1649 15.098 83.3529 15.098C82.9609 15.098 82.6669 15.112 82.4709 15.14C81.6869 15.168 80.8749 15.35 80.0349 15.686V29H72.8529V9.68H78.6909L79.4889 12.914C81.5049 10.478 83.9129 9.26 86.7129 9.26C87.7209 9.26 88.6589 9.4 89.5269 9.68C90.4229 9.96 91.0949 10.366 91.5429 10.898ZM104.521 21.062C104.521 21.566 104.535 22.098 104.563 22.658C104.591 23.19 104.675 23.526 104.815 23.666C105.011 23.862 105.697 23.96 106.873 23.96L108.301 23.918C108.553 25.262 108.679 26.816 108.679 28.58C108.147 28.776 107.363 28.958 106.327 29.126C105.319 29.294 104.353 29.378 103.429 29.378C101.497 29.378 99.9985 28.958 98.9345 28.118C97.8985 27.25 97.3805 25.92 97.3805 24.128V13.796H94.2305V9.974L97.3805 9.68L99.2705 5.06L104.521 4.766V9.68H108.973V13.796H104.521V21.062Z" fill="#D93F87"/>
</svg>
